<svg id="Layer_1" data-name="Layer 1" xmlns="http://www.w3.org/2000/svg" viewBox="0 0 262.57 250.34"><defs><style>.cls-1{fill:#ececec;}.cls-2{fill:#b3b3b3;}</style></defs><path class="cls-1" d="M333.3,290.73l5.54,0q31.25,0,62.5,0a30.71,30.71,0,0,1,8.35,1.26,27.07,27.07,0,0,1,7.6,3.65,24.17,24.17,0,0,1,5.89,5.66,27.18,27.18,0,0,1,5.16,11.13,27.7,27.7,0,0,1-.95,14.74,29.47,29.47,0,0,1-3.3,6.68,27.59,27.59,0,0,1-5.2,5.59A26.6,26.6,0,0,1,407,345.13c-.76.17-1.57.12-2.36.29-3.69.8-7.32,1.66-10.55,3.85a22.28,22.28,0,0,0-5.23,4.62,22.66,22.66,0,0,0-5.24,14.35,23.21,23.21,0,0,0,3.74,12.84A22.79,22.79,0,0,0,398.53,390c1.23.48,2.53.73,3.81,1.1-.17.35-.59.05-.73.47.48.08.95.2,1.42.25a26.55,26.55,0,0,1,10.17,3.35,27.73,27.73,0,0,1,6.42,4.63,30.29,30.29,0,0,1,5.33,6.81,31.38,31.38,0,0,1,3.79,12,30.3,30.3,0,0,1-10.21,26.18,30.34,30.34,0,0,1-8.32,5.24,25,25,0,0,1-9.39,2.14c-2.43,0-4.87,0-7.3,0a9.51,9.51,0,0,0-3.09.39c-.21-.22-.44-.44-.63-.67L377,436.58c-4-4.82-8.08-9.61-12.1-14.44a3.87,3.87,0,0,0-5.78-.49c-.49.43-1,.83-1.48,1.25s-.75.37-1.15-.11c-2.28-2.75-4.56-5.49-6.89-8.19-.55-.63-.44-1,.09-1.52a54.29,54.29,0,0,0,5.75-6.74,63.67,63.67,0,0,0,10.91-24.54,63.34,63.34,0,0,0-7.65-45.47,63.72,63.72,0,0,0-10-12.66,59.93,59.93,0,0,0-12.06-9.25,1.64,1.64,0,0,1-1-1.71,11.43,11.43,0,0,0,0-1.94,1.35,1.35,0,0,0-1.38-1.34c-.83,0-1.18.55-1.3,1.3a3.57,3.57,0,0,0,0,.73c0,.76-.26.83-.89.52a61.77,61.77,0,0,0-16.09-5.3,64.57,64.57,0,0,0-18-.73,61.16,61.16,0,0,0-20.46,5.69A64.31,64.31,0,0,0,262,322a62.79,62.79,0,0,0-9,10,61.07,61.07,0,0,0-8.19,15.76,63.63,63.63,0,0,0-3.34,15.22,69.45,69.45,0,0,0-.05,10.89,60.5,60.5,0,0,0,1.92,11.27A64,64,0,0,0,256,409.52a61.73,61.73,0,0,0,8.84,8.64,1,1,0,0,1,.4,1.33c-.34,1,.22,1.67,1.29,1.75.46,0,.92,0,1.38,0a2.52,2.52,0,0,1,1.61.3,35.51,35.51,0,0,0,4.8,2.92A60.71,60.71,0,0,0,285,429.05a67,67,0,0,0,16.31,3,63.48,63.48,0,0,0,10.68-.36,61.59,61.59,0,0,0,14.34-3.44,59.47,59.47,0,0,0,14-7.26c.58-.41.92-.23,1.31.24q3.42,4.13,6.88,8.21c.39.47.46.83-.07,1.23s-.93.8-1.41,1.19a3.73,3.73,0,0,0-.7,5.59c2.47,3,5,6,7.52,9,1.57,1.89,3.25,3.69,4.7,5.69H195a26.34,26.34,0,0,1-8.56-1.61,30.3,30.3,0,0,1-12-7.86,29.73,29.73,0,0,1-5.71-8.78c-.55-1.26-.74-2.6-1.22-3.85-1.14-3-1.11-6.05-1.06-9.1a29.57,29.57,0,0,1,1.79-9.94,29.87,29.87,0,0,1,17-17.43,29.78,29.78,0,0,1,11.89-2.11c1.5,0,3-.21,4.51-.17,0,.79,0,1.58,0,2.37S202.13,395,203,395s1.26-.42,1.29-1.33,0-1.95,0-2.93a9.78,9.78,0,0,0,4-1.06,22.75,22.75,0,0,0,13.28-14.56,23.7,23.7,0,0,0,1-6.73,22.63,22.63,0,0,0-6-15.36,22.17,22.17,0,0,0-12.5-6.95c-2-.38-4.09-.43-6.15-.63a26.07,26.07,0,0,1-13.6-5.62,27.79,27.79,0,0,1-6.51-7.22,24,24,0,0,1-3.19-8.09,31.24,31.24,0,0,1-.81-7.57,28,28,0,0,1,2.14-9.66,26.93,26.93,0,0,1,5.37-8.22,26.06,26.06,0,0,1,9.57-6.45,32.15,32.15,0,0,1,10.81-2.1c0,.61,0,1.22.05,1.83a1.28,1.28,0,0,0,2.54,0c.05-.55,0-1.1.06-1.64H325.43c1.25,0,2.51,0,3.77,0,.81.33,1.21,1.1,1.81,1.67a1.34,1.34,0,0,0,1.52.36,1.25,1.25,0,0,0,.8-1.32ZM204.08,413.21a1,1,0,0,0,.09.44,15,15,0,0,0,4.43,4.6,1.14,1.14,0,0,0,1.63-.37,1.29,1.29,0,0,0-.13-1.84,20.54,20.54,0,0,1-3.64-3.87,1.34,1.34,0,0,0-1.66-.41C204.23,412,204.06,412.46,204.08,413.21ZM335.69,300.82c0-.93,0-1.85,0-2.77a1.35,1.35,0,1,0-2.69,0c0,1.84,0,3.69,0,5.54,0,.76.33,1.41,1.23,1.45s1.39-.46,1.45-1.45S335.69,301.74,335.69,300.82ZM219.39,421.23c.4,0,1.17,0,1.93,0a1.18,1.18,0,0,0,1.24-1.39c0-.89-.46-1.28-1.51-1.32a51.13,51.13,0,0,1-5.25-.14,1.34,1.34,0,0,0-.35,2.65A15.66,15.66,0,0,0,219.39,421.23Zm11.75,0c.86,0,1.72,0,2.58,0s1.55-.51,1.58-1.3-.55-1.4-1.57-1.42c-1.75,0-3.5,0-5.26,0a1.39,1.39,0,0,0-1.44,1.36,1.35,1.35,0,0,0,1.43,1.36C229.35,421.27,230.24,421.24,231.14,421.25Zm12.69-2.73c-.89,0-1.78,0-2.67,0a1.28,1.28,0,0,0-1.39,1.38,1.22,1.22,0,0,0,1.33,1.32c1.81,0,3.63,0,5.44,0a1.42,1.42,0,0,0,1.49-1.34c0-.77-.58-1.33-1.53-1.37S244.72,418.52,243.83,418.52Zm12.6,0h0c-.86,0-1.72,0-2.58,0a1.36,1.36,0,1,0,.05,2.71q2.58,0,5.16,0c1.07,0,1.53-.4,1.58-1.26s-.48-1.38-1.54-1.44C258.21,418.49,257.32,418.53,256.43,418.53Zm-52.2-15.39c0-.86.05-1.73,0-2.58a1.15,1.15,0,0,0-1.35-1.09,1.07,1.07,0,0,0-1.17,1.15c0,1.9-.16,3.8,0,5.71a1.38,1.38,0,0,0,1.42,1.39,1.35,1.35,0,0,0,1.23-1.63C204.22,405.1,204.29,404.12,204.23,403.14Zm0-101.06h0c0-.92,0-1.84,0-2.76S203.77,298,203,298a1.3,1.3,0,0,0-1.39,1.39c.13,1.84,0,3.68.09,5.52,0,.89.51,1.36,1.29,1.36s1.24-.48,1.27-1.38S204.25,303,204.25,302.08Zm-2.64,25.3h.06c0,1,0,2,0,2.95a1.14,1.14,0,0,0,1.22,1.22,1.12,1.12,0,0,0,1.32-1.11c.05-2,.05-3.93,0-5.89a1.29,1.29,0,0,0-1.44-1.24c-.75.07-1.17.63-1.16,1.5S201.61,326.53,201.61,327.38Zm.06,12.68h0c0,1,0,2,0,2.95a1.28,1.28,0,0,0,2.55,0c0-1.94,0-3.88,0-5.81a1.28,1.28,0,0,0-2.55.06Zm2.58-25.28h0c0-.86,0-1.72,0-2.58,0-1.06-.41-1.51-1.29-1.51s-1.33.47-1.34,1.5c0,1.78,0,3.56,0,5.34a1.29,1.29,0,1,0,2.57,0C204.28,316.62,204.25,315.7,204.25,314.78Z" transform="translate(-166.37 -233.61)"/><path class="cls-1" d="M321,282.2a11.71,11.71,0,0,1-2.58,0h-72.2c-3.13,0-5.79-1.31-8.31-2.94a14.47,14.47,0,0,1-6-8.89,14,14,0,0,1-.25-5.77,15.77,15.77,0,0,1,3.77-8.05,14.78,14.78,0,0,1,11.58-5.2q66.28-.08,132.58,0a14.5,14.5,0,0,1,9.21,3.5,15,15,0,0,1,5.7,11.07,14.68,14.68,0,0,1-2.17,8.74,15.2,15.2,0,0,1-7.64,6.55,16.12,16.12,0,0,1-5.8,1q-26.16,0-52.33,0h-2a21.36,21.36,0,0,0-4.76-5,1,1,0,0,0-1.34.15,1.29,1.29,0,0,0-.26,1.54,4.65,4.65,0,0,0,.68.87A13.9,13.9,0,0,1,321,282.2Zm-12-12.65a1.5,1.5,0,0,0,.51,1.21c1.1,1.08,2.17,2.18,3.28,3.26a3.3,3.3,0,0,0,.89.64,1.23,1.23,0,0,0,1.58-.35,1.18,1.18,0,0,0,.09-1.61,43.63,43.63,0,0,0-4.31-4.29,1.29,1.29,0,0,0-1.49-.06A1.17,1.17,0,0,0,308.93,269.55Zm-20.7-1.42h0c1,0,2,0,2.94,0a1.35,1.35,0,0,0,0-2.69c-1.9,0-3.81,0-5.71,0a1.21,1.21,0,0,0-1.32,1.33c0,.85.46,1.32,1.4,1.36S287.34,268.13,288.23,268.13Zm-50.71,0h0c.95,0,1.91,0,2.86,0a1.34,1.34,0,0,0,.11-2.67c-1.94-.05-3.88-.06-5.82,0a1.24,1.24,0,0,0-1.33,1.35,1.39,1.39,0,0,0,1.5,1.32C235.73,268.16,236.62,268.14,237.52,268.14Zm12.69,0h0c1,0,2,0,2.95,0a1.28,1.28,0,0,0,1.31-1.2,1.39,1.39,0,0,0-1.28-1.46c-2-.05-3.94-.06-5.91,0a1.26,1.26,0,0,0-1.21,1.47c0,.87.61,1.16,1.36,1.19C248.36,268.16,249.28,268.13,250.21,268.13Zm25.39,0h0c.95,0,1.9,0,2.85,0a1.33,1.33,0,0,0,1.37-1.33,1.24,1.24,0,0,0-1.24-1.35c-1.93-.06-3.87-.06-5.8,0a1.24,1.24,0,0,0-1.32,1.35,1.35,1.35,0,0,0,1.47,1.32C273.82,268.16,274.71,268.14,275.6,268.14Zm25.37,0h2.58c1,0,1.57-.51,1.59-1.38s-.51-1.29-1.47-1.32c-1.84-.05-3.68-.05-5.52,0a1.32,1.32,0,0,0-1.36,1.43,1.34,1.34,0,0,0,1.42,1.27C299.13,268.16,300.05,268.14,301,268.14Zm-38,0h0c.89,0,1.78,0,2.67,0a1.36,1.36,0,0,0,1.46-1.33,1.33,1.33,0,0,0-1.42-1.37c-1.84,0-3.69-.05-5.53,0a1.27,1.27,0,0,0-1.4,1.37c0,.78.52,1.29,1.46,1.32S262.05,268.13,263,268.13Z" transform="translate(-166.37 -233.61)"/><path class="cls-2" d="M358.5,452.13c-1.45-2-3.13-3.8-4.7-5.69-2.5-3-5.05-6-7.52-9a3.73,3.73,0,0,1,.7-5.59c.48-.39.93-.82,1.41-1.19s.46-.76.07-1.23q-3.46-4.08-6.88-8.21c-.39-.47-.73-.65-1.31-.24a59.47,59.47,0,0,1-14,7.26A61.59,61.59,0,0,1,312,431.67a63.48,63.48,0,0,1-10.68.36,67,67,0,0,1-16.31-3,60.71,60.71,0,0,1-10.68-4.58,35.51,35.51,0,0,1-4.8-2.92,2.52,2.52,0,0,0-1.61-.3c-.46,0-.92,0-1.38,0-1.07-.08-1.63-.78-1.29-1.75a1,1,0,0,0-.4-1.33,61.73,61.73,0,0,1-8.84-8.64,64,64,0,0,1-12.63-24.31,60.5,60.5,0,0,1-1.92-11.27,69.45,69.45,0,0,1,.05-10.89,63.63,63.63,0,0,1,3.34-15.22A61.07,61.07,0,0,1,253,332.07a62.79,62.79,0,0,1,9-10,64.31,64.31,0,0,1,15.53-10.39A61.16,61.16,0,0,1,298,306a64.57,64.57,0,0,1,18,.73,61.77,61.77,0,0,1,16.09,5.3c.63.31.92.24.89-.52a3.57,3.57,0,0,1,0-.73c.12-.75.47-1.28,1.3-1.3a1.35,1.35,0,0,1,1.38,1.34,11.43,11.43,0,0,1,0,1.94,1.64,1.64,0,0,0,1,1.71,59.93,59.93,0,0,1,12.06,9.25,63.72,63.72,0,0,1,10,12.66,63.34,63.34,0,0,1,7.65,45.47,63.67,63.67,0,0,1-10.91,24.54,54.29,54.29,0,0,1-5.75,6.74c-.53.53-.64.89-.09,1.52,2.33,2.7,4.61,5.44,6.89,8.19.4.48.71.49,1.15.11s1-.82,1.48-1.25a3.87,3.87,0,0,1,5.78.49c4,4.83,8.07,9.62,12.1,14.44l12.8,15.3c.19.23.42.45.63.67,1.19,1.48,2.35,3,3.57,4.43,2,2.41,4.13,4.77,6.15,7.2a15.6,15.6,0,0,1,2.35,3.49,2,2,0,0,0,.46,1.12l.12.91a6.48,6.48,0,0,0,.1,2.06l0,.56a7.51,7.51,0,0,0-.64,1.83,9.22,9.22,0,0,1-3.15,4,9.59,9.59,0,0,0-.75.68.53.53,0,0,0-.39.33c-1.13.9-2.13,1.95-3.34,2.75a2.45,2.45,0,0,0-1.14.92,9.51,9.51,0,0,1-5.94,1.06,14.91,14.91,0,0,1-3.4-1.24,10,10,0,0,0-2.2-2.24A68.55,68.55,0,0,0,377,474c-2.76-3.37-5.5-6.76-8.42-10C365.12,460.17,362.08,455.92,358.5,452.13ZM304.35,307.71a61.18,61.18,0,1,0,61.31,60.71A61.11,61.11,0,0,0,304.35,307.71Zm87.14,157.38a1.46,1.46,0,0,0,1.51-.86,1.65,1.65,0,0,0-.2-1.82c-.27-.37-.62-.69-.92-1L379.52,447q-4.61-5.34-9.24-10.67-3.63-4.19-7.27-8.36a1.61,1.61,0,0,0-1.93-.47,1.57,1.57,0,0,0-1,1.63,2.67,2.67,0,0,0,.94,1.75c1.42,1.66,2.86,3.3,4.29,4.95l9,10.4,9.07,10.46,6.52,7.53A1.78,1.78,0,0,0,391.49,465.09Z" transform="translate(-166.37 -233.61)"/><path class="cls-2" d="M195,257.46l.06.07c.87,1,1,1.86.34,2.41s-1.64.29-2.45-.55c-2.75-2.85-5.57-5.64-8.4-8.4-1.62-1.59-3.13-3.29-4.84-4.79a2.12,2.12,0,0,1-.3-.36c-.51-.68-.85-1.4-.24-2.18s1.32-.33,2,0a1.27,1.27,0,0,0,.6.67c1.23,1.3,2.49,2.55,3.82,3.74a.94.94,0,0,0,.54.55,44.74,44.74,0,0,0,3.9,3.89.94.94,0,0,0,.54.55,44.74,44.74,0,0,0,3.9,3.89A1,1,0,0,0,195,257.46Z" transform="translate(-166.37 -233.61)"/><path class="cls-2" d="M170,269.1a1.34,1.34,0,0,1-.94-1.66c.21-.82.91-.93,1.61-.93h19.67a1.6,1.6,0,0,1,1.7.85,1.21,1.21,0,0,1-.25,1.36c-.36.46-.88.37-1.36.37q-9.28,0-18.56,0l-1.48,0Z" transform="translate(-166.37 -233.61)"/><path class="cls-2" d="M202,245v-9.33a6.82,6.82,0,0,1,.06-1.11,1.07,1.07,0,0,1,1.05-1,1.19,1.19,0,0,1,1.34.75,2.72,2.72,0,0,1,.15,1.09v19.32a3.43,3.43,0,0,1,0,.64,1.34,1.34,0,0,1-1.37,1.24c-.85,0-1.13-.6-1.17-1.27-.07-1.17,0-2.34,0-3.51Z" transform="translate(-166.37 -233.61)"/><path class="cls-2" d="M201.83,279a14.3,14.3,0,0,1,1.89-5.33,1.28,1.28,0,0,1,1.78-.62,1.3,1.3,0,0,1,.57,2,18,18,0,0,0-1.66,4.66c-.14.61-.41,1.16-1.19,1.21A1.19,1.19,0,0,1,202,280,2.64,2.64,0,0,1,201.83,279Z" transform="translate(-166.37 -233.61)"/><path class="cls-2" d="M213,266.18c.54-.12,1.08-.26,1.62-.36a1.35,1.35,0,0,1,1.65,1,1.46,1.46,0,0,1-1.07,1.7,13.34,13.34,0,0,0-4.51,1.78c-.57.33-1.23.54-1.75-.09a1.43,1.43,0,0,1,0-1.94,2.77,2.77,0,0,1,1.17-.86c.56-.25,1.14-.47,1.71-.7A2.29,2.29,0,0,0,213,266.18Z" transform="translate(-166.37 -233.61)"/><path class="cls-2" d="M222.2,265.41a12.39,12.39,0,0,0,3.22,0,7.88,7.88,0,0,1,2.47.08,1.18,1.18,0,0,1,1.06,1.38,1.23,1.23,0,0,1-1.28,1.2c-1.85,0-3.69,0-5.53,0-.74,0-1.32-.29-1.39-1.16a1.18,1.18,0,0,1,1.07-1.44Z" transform="translate(-166.37 -233.61)"/><path class="cls-2" d="M333.3,290.73l0,.65a1.25,1.25,0,0,1-.8,1.32,1.34,1.34,0,0,1-1.52-.36c-.6-.57-1-1.34-1.81-1.67-.4-1-1.38-1.53-2-2.36a1.43,1.43,0,0,1-.19-1.56,1.27,1.27,0,0,1,1.34-.61,1.61,1.61,0,0,1,1,.63Z" transform="translate(-166.37 -233.61)"/><path class="cls-2" d="M201.67,352.85c0-1,0-2,0-3,0-.8.46-1.07,1.18-1.11s1.34.2,1.36,1q.07,3.09,0,6.18c0,.76-.66,1-1.32,1s-1.2-.3-1.21-1.09c0-1,0-2,0-3Z" transform="translate(-166.37 -233.61)"/><path class="cls-2" d="M203,374.11a1.17,1.17,0,0,1,1.28,1.27c0,1.87,0,3.75,0,5.63a1.33,1.33,0,0,1-1.75,1.33,1.19,1.19,0,0,1-.82-1.29c0-2.06,0-4.13,0-6.19A2.44,2.44,0,0,1,203,374.11Z" transform="translate(-166.37 -233.61)"/><path class="cls-2" d="M321,282.2a13.9,13.9,0,0,0-2.15-2.38,4.65,4.65,0,0,1-.68-.87,1.29,1.29,0,0,1,.26-1.54,1,1,0,0,1,1.34-.15,21.36,21.36,0,0,1,4.76,5,1.42,1.42,0,0,1-1,1.48H323C322.11,283.45,321.66,282.66,321,282.2Z" transform="translate(-166.37 -233.61)"/><path class="cls-2" d="M204.28,390.74c0,1,0,2,0,2.93S203.79,395,203,395s-1.25-.42-1.29-1.33,0-1.58,0-2.37l.09-4a4.17,4.17,0,0,1,1.63-.45l.53.23.36.41Z" transform="translate(-166.37 -233.61)"/><path class="cls-2" d="M204.29,290.71c0,.54,0,1.09-.06,1.64a1.28,1.28,0,0,1-2.54,0c-.05-.61,0-1.22-.05-1.83,0-1.52,0-3,.07-4.56a1.06,1.06,0,0,0,.53-.57c1.56-.15,2,.25,2,1.81Z" transform="translate(-166.37 -233.61)"/><path class="cls-2" d="M201.67,365.49c0-.92,0-1.85,0-2.77a1.29,1.29,0,0,1,2.57,0c0,1.88,0,3.75,0,5.62a1.24,1.24,0,0,1-1.38,1.28,1.14,1.14,0,0,1-1.19-1.33C201.68,367.33,201.67,366.41,201.67,365.49Z" transform="translate(-166.37 -233.61)"/><path class="cls-1" d="M203.34,386.83a4.17,4.17,0,0,0-1.63.45,1,1,0,0,1,.34-1.31c.66-.51.95-.39,1.1.45A1.51,1.51,0,0,0,203.34,386.83Z" transform="translate(-166.37 -233.61)"/><path class="cls-1" d="M382.2,480.38a10,10,0,0,1,2.2,2.24c-1-.09-1.58-.87-2.25-1.47C381.91,480.93,382.07,480.63,382.2,480.38Z" transform="translate(-166.37 -233.61)"/><path class="cls-1" d="M402.51,474.15a7.51,7.51,0,0,1,.64-1.83c.34,0,.75,0,.69.48,0,.36,0,.88-.56.89C402.92,473.7,402.8,474,402.51,474.15Z" transform="translate(-166.37 -233.61)"/><path class="cls-1" d="M203,374.11a2.44,2.44,0,0,0-1.26.75.75.75,0,0,1,.27-1.16C202.41,373.44,202.78,373.6,203,374.11Z" transform="translate(-166.37 -233.61)"/><path class="cls-1" d="M403,468.79a2,2,0,0,1-.46-1.12c.78.15,1.06.77,1.32,1.46Z" transform="translate(-166.37 -233.61)"/><path class="cls-1" d="M403.18,471.76a6.48,6.48,0,0,1-.1-2.06C404.08,470.33,403.34,471.06,403.18,471.76Z" transform="translate(-166.37 -233.61)"/><path class="cls-1" d="M213,266.18a2.29,2.29,0,0,1-1.14.49c0-.35-.06-.76.36-.93S212.75,266,213,266.18Z" transform="translate(-166.37 -233.61)"/><path class="cls-1" d="M393.74,482.8a2.45,2.45,0,0,1,1.14-.92C395,482.82,394.58,483.06,393.74,482.8Z" transform="translate(-166.37 -233.61)"/><path class="cls-1" d="M181.71,244.29a1.27,1.27,0,0,1-.6-.67C181.92,243.29,181.85,243.76,181.71,244.29Z" transform="translate(-166.37 -233.61)"/><path class="cls-1" d="M186.07,248.58a.94.94,0,0,1-.54-.55c.26,0,.57-.11.75.14S186.2,248.47,186.07,248.58Z" transform="translate(-166.37 -233.61)"/><path class="cls-1" d="M202.24,285.39a1.06,1.06,0,0,1-.53.57c0-.26-.12-.56.11-.75S202.13,285.27,202.24,285.39Z" transform="translate(-166.37 -233.61)"/><path class="cls-1" d="M190.51,253a.94.94,0,0,1-.54-.55c.26,0,.56-.12.75.13S190.64,252.91,190.51,253Z" transform="translate(-166.37 -233.61)"/><path class="cls-1" d="M195,257.46a1,1,0,0,1-.54-.55c.26,0,.56-.12.75.13S195.08,257.35,195,257.46Z" transform="translate(-166.37 -233.61)"/><path class="cls-1" d="M170,269.1l.39,0c0,.26,0,.54-.28.72C169.84,269.62,170.1,269.34,170,269.1Z" transform="translate(-166.37 -233.61)"/><path class="cls-1" d="M323,283.71h.57c0,.17,0,.4-.28.4S323,283.88,323,283.71Z" transform="translate(-166.37 -233.61)"/><path class="cls-1" d="M222.2,265.41l-.38.1C221.91,265.34,222,265.28,222.2,265.41Z" transform="translate(-166.37 -233.61)"/><path class="cls-1" d="M398.22,479.13a.53.53,0,0,1,.39-.33A.59.59,0,0,1,398.22,479.13Z" transform="translate(-166.37 -233.61)"/><path class="cls-1" d="M204.23,387.47l-.36-.41A.51.51,0,0,1,204.23,387.47Z" transform="translate(-166.37 -233.61)"/><path class="cls-2" d="M204.08,413.21c0-.75.15-1.25.72-1.45a1.34,1.34,0,0,1,1.66.41A20.54,20.54,0,0,0,210.1,416a1.29,1.29,0,0,1,.13,1.84,1.14,1.14,0,0,1-1.63.37,15,15,0,0,1-4.43-4.6A1,1,0,0,1,204.08,413.21Z" transform="translate(-166.37 -233.61)"/><path class="cls-2" d="M335.69,300.82c0,.92,0,1.85,0,2.77s-.57,1.48-1.45,1.45-1.21-.69-1.23-1.45c-.05-1.85-.05-3.7,0-5.54a1.35,1.35,0,1,1,2.69,0C335.73,299,335.69,299.89,335.69,300.82Z" transform="translate(-166.37 -233.61)"/><path class="cls-2" d="M219.39,421.23a15.66,15.66,0,0,1-3.94-.21,1.34,1.34,0,0,1,.35-2.65,51.13,51.13,0,0,0,5.25.14c1,0,1.5.43,1.51,1.32a1.18,1.18,0,0,1-1.24,1.39C220.56,421.27,219.79,421.23,219.39,421.23Z" transform="translate(-166.37 -233.61)"/><path class="cls-2" d="M231.14,421.25c-.9,0-1.79,0-2.68,0a1.35,1.35,0,0,1-1.43-1.36,1.39,1.39,0,0,1,1.44-1.36c1.76,0,3.51,0,5.26,0,1,0,1.6.58,1.57,1.42s-.61,1.28-1.58,1.3S232,421.25,231.14,421.25Z" transform="translate(-166.37 -233.61)"/><path class="cls-2" d="M243.83,418.52c.89,0,1.78,0,2.67,0s1.54.6,1.53,1.37a1.42,1.42,0,0,1-1.49,1.34c-1.81,0-3.63,0-5.44,0a1.22,1.22,0,0,1-1.33-1.32,1.28,1.28,0,0,1,1.39-1.38C242.05,418.49,242.94,418.52,243.83,418.52Z" transform="translate(-166.37 -233.61)"/><path class="cls-2" d="M256.43,418.53c.89,0,1.78,0,2.67,0,1.06.06,1.58.59,1.54,1.44s-.51,1.25-1.58,1.26q-2.58,0-5.16,0a1.36,1.36,0,1,1-.05-2.71c.86,0,1.72,0,2.58,0Z" transform="translate(-166.37 -233.61)"/><path class="cls-2" d="M204.23,403.14c.06,1,0,2,.12,2.95a1.35,1.35,0,0,1-1.23,1.63,1.38,1.38,0,0,1-1.42-1.39c-.17-1.91,0-3.81,0-5.71a1.07,1.07,0,0,1,1.17-1.15,1.15,1.15,0,0,1,1.35,1.09C204.28,401.41,204.23,402.28,204.23,403.14Z" transform="translate(-166.37 -233.61)"/><path class="cls-2" d="M204.25,302.08c0,.92,0,1.84,0,2.76s-.49,1.37-1.27,1.38-1.25-.47-1.29-1.36c-.08-1.84,0-3.68-.09-5.52A1.3,1.3,0,0,1,203,298c.79,0,1.25.48,1.27,1.37s0,1.84,0,2.76Z" transform="translate(-166.37 -233.61)"/><path class="cls-2" d="M201.61,327.38c0-.85,0-1.71,0-2.57s.41-1.43,1.16-1.5a1.29,1.29,0,0,1,1.44,1.24c.06,2,.06,3.93,0,5.89a1.12,1.12,0,0,1-1.32,1.11,1.14,1.14,0,0,1-1.22-1.22c0-1,0-2,0-2.95Z" transform="translate(-166.37 -233.61)"/><path class="cls-2" d="M201.67,340.06v-2.77a1.28,1.28,0,0,1,2.55-.06c.05,1.93.05,3.87,0,5.81a1.28,1.28,0,0,1-2.55,0c0-1,0-2,0-2.95Z" transform="translate(-166.37 -233.61)"/><path class="cls-2" d="M204.25,314.78c0,.92,0,1.84,0,2.76a1.29,1.29,0,1,1-2.57,0c0-1.78-.07-3.56,0-5.34,0-1,.48-1.5,1.34-1.5s1.28.45,1.29,1.51c0,.86,0,1.72,0,2.58Z" transform="translate(-166.37 -233.61)"/><path class="cls-2" d="M308.93,269.55a1.17,1.17,0,0,1,.55-1.2,1.29,1.29,0,0,1,1.49.06,43.63,43.63,0,0,1,4.31,4.29,1.18,1.18,0,0,1-.09,1.61,1.23,1.23,0,0,1-1.58.35,3.3,3.3,0,0,1-.89-.64c-1.11-1.08-2.18-2.18-3.28-3.26A1.5,1.5,0,0,1,308.93,269.55Z" transform="translate(-166.37 -233.61)"/><path class="cls-2" d="M288.23,268.13c-.89,0-1.78,0-2.67,0s-1.4-.51-1.4-1.36a1.21,1.21,0,0,1,1.32-1.33c1.9,0,3.81,0,5.71,0a1.35,1.35,0,0,1,0,2.69c-1,0-2,0-2.94,0Z" transform="translate(-166.37 -233.61)"/><path class="cls-2" d="M237.52,268.14c-.9,0-1.79,0-2.68,0a1.39,1.39,0,0,1-1.5-1.32,1.24,1.24,0,0,1,1.33-1.35c1.94-.07,3.88-.06,5.82,0a1.34,1.34,0,0,1-.11,2.67c-.95,0-1.91,0-2.86,0Z" transform="translate(-166.37 -233.61)"/><path class="cls-2" d="M250.21,268.13c-.93,0-1.85,0-2.78,0-.75,0-1.32-.32-1.36-1.19a1.26,1.26,0,0,1,1.21-1.47c2-.08,3.94-.07,5.91,0a1.39,1.39,0,0,1,1.28,1.46,1.28,1.28,0,0,1-1.31,1.2c-1,.05-2,0-2.95,0Z" transform="translate(-166.37 -233.61)"/><path class="cls-2" d="M275.6,268.14c-.89,0-1.78,0-2.67,0a1.35,1.35,0,0,1-1.47-1.32,1.24,1.24,0,0,1,1.32-1.35c1.93-.07,3.87-.07,5.8,0a1.24,1.24,0,0,1,1.24,1.35,1.33,1.33,0,0,1-1.37,1.33c-.95,0-1.9,0-2.85,0Z" transform="translate(-166.37 -233.61)"/><path class="cls-2" d="M301,268.14c-.92,0-1.84,0-2.76,0a1.34,1.34,0,0,1-1.42-1.27,1.32,1.32,0,0,1,1.36-1.43c1.84,0,3.68,0,5.52,0,1,0,1.49.58,1.47,1.32s-.58,1.36-1.59,1.38Z" transform="translate(-166.37 -233.61)"/><path class="cls-2" d="M263,268.13c-.92,0-1.84,0-2.76,0s-1.47-.54-1.46-1.32a1.27,1.27,0,0,1,1.4-1.37c1.84-.06,3.69-.05,5.53,0a1.33,1.33,0,0,1,1.42,1.37,1.36,1.36,0,0,1-1.46,1.33c-.89,0-1.78,0-2.67,0Z" transform="translate(-166.37 -233.61)"/><path class="cls-1" d="M304.35,307.71a61.18,61.18,0,1,1-61.07,60.64A61.12,61.12,0,0,1,304.35,307.71Zm-50.91,61.13c-.29,27.81,22.45,51,50.7,51.13a51.1,51.1,0,1,0-50.7-51.13Zm51.11-55.95c1.42,0,2.83.06,4.24.17a57.21,57.21,0,0,1,9.37,1.53,54.9,54.9,0,0,1,6.94,2.22c.92.37,1.64,0,1.73-.88a1.32,1.32,0,0,0-1-1.47c-1.37-.53-2.74-1.11-4.15-1.53a64.74,64.74,0,0,0-16.64-2.6,51,51,0,0,0-8,.54,58.05,58.05,0,0,0-14.67,3.86,59.3,59.3,0,0,0-23.72,17.82,1.32,1.32,0,0,0,0,1.9c.54.45,1.23.33,1.81-.37a66.36,66.36,0,0,1,9.32-9.19,56.17,56.17,0,0,1,10.41-6.42,55.76,55.76,0,0,1,24.34-5.58Zm-48.86,24.8a1.08,1.08,0,0,0-1,.61c-.6,1-1.22,2-1.79,3a44.45,44.45,0,0,0-2.64,5.69,1.2,1.2,0,1,0,2.22.87q1.08-2.4,2.25-4.74c.62-1.24,1.33-2.43,2-3.66A1.12,1.12,0,0,0,255.69,337.69Z" transform="translate(-166.37 -233.61)"/><path class="cls-2" d="M253.44,368.84A51,51,0,1,1,304.14,420C275.89,419.8,253.15,396.65,253.44,368.84ZM304.27,418c27.06.27,49.44-22,49.27-49.44A49.09,49.09,0,1,0,304.27,418Z" transform="translate(-166.37 -233.61)"/><path class="cls-2" d="M321.84,355.27a12.59,12.59,0,0,1-4.08,10.2,18.7,18.7,0,0,1-7.67,4.11,1.18,1.18,0,0,0-1,1.25c-.06,1.76-.22,3.51-.3,5.26a8.1,8.1,0,0,1-.36,2.08,3.66,3.66,0,0,1-6.92.3,7.88,7.88,0,0,1-.6-2.6c-.17-2.37-.35-4.73-.43-7.1-.08-2.82.95-4.21,3.67-5a18.09,18.09,0,0,0,4.59-1.9A7.07,7.07,0,0,0,312,355c-.16-2.76-1.12-5.17-3.84-6.37s-7.34-1.13-9.58,2.44a9.8,9.8,0,0,1-2.34,2.72c-2,1.5-6.13.68-7.41-1.49a3.62,3.62,0,0,1,.23-3.86c3.24-5.76,8.3-8.56,14.81-8.87a19.11,19.11,0,0,1,10.43,2.23c4.72,2.65,7,6.81,7.51,12.1C321.88,354.35,321.84,354.81,321.84,355.27Z" transform="translate(-166.37 -233.61)"/><path class="cls-2" d="M304.89,398.15A6.11,6.11,0,1,1,311.1,392,6.14,6.14,0,0,1,304.89,398.15Z" transform="translate(-166.37 -233.61)"/></svg>